<svg width="24" height="24" viewBox="0 0 24 24" fill="none" xmlns="http://www.w3.org/2000/svg">
<g clip-path="url(#clip0_80_1918)">
<path fill-rule="evenodd" clip-rule="evenodd" d="M7.55058 12.7327H1.95854C1.33833 12.7327 0.83252 12.2321 0.83252 11.6183V1.83055C0.83252 1.21675 1.33838 0.716156 1.95854 0.716156H17.8624C18.1934 0.716156 18.4782 0.841728 18.6995 1.0853L20.3412 2.89146L15.7073 3.25063C15.1495 3.29385 14.6659 3.55367 14.3253 3.993L7.55058 12.7327ZM4.81969 3.62166C4.24331 3.62166 3.77613 4.08402 3.77613 4.65446C3.77613 5.22489 4.24331 5.68725 4.81969 5.68725C5.39607 5.68725 5.86325 5.22489 5.86325 4.65446C5.86325 4.08402 5.39607 3.62166 4.81969 3.62166ZM8.43966 3.48712L4.04425 9.54215C3.91474 9.72026 3.95559 9.96852 4.13557 10.0967C4.31554 10.2249 4.56638 10.1845 4.69593 10.0064L9.09134 3.95137C9.22084 3.77326 9.17999 3.52496 9.00002 3.39679C8.82005 3.26858 8.56916 3.309 8.43966 3.48712ZM8.31212 7.76156C7.73574 7.76156 7.26856 8.22392 7.26856 8.79435C7.26856 9.36478 7.73574 9.82714 8.31212 9.82714C8.8885 9.82714 9.35568 9.36478 9.35568 8.79435C9.35573 8.22397 8.8885 7.76156 8.31212 7.76156ZM24.5982 11.7927C24.7997 11.5328 24.8724 11.2326 24.8118 10.9106L23.8343 5.70774C23.7088 5.04005 23.4959 4.45954 22.9514 4.04614C22.4069 3.63273 21.7853 3.57949 21.1011 3.63253L15.7702 4.04574C15.4402 4.07131 15.1662 4.21857 14.9648 4.47844L5.28435 16.9666C4.90688 17.4536 5.00026 18.1555 5.49232 18.5291L13.3391 24.4867C13.8311 24.8603 14.5404 24.7678 14.9179 24.2809L24.5982 11.7927ZM19.9194 6.25579C19.5675 6.70972 19.6541 7.36002 20.1127 7.70827C20.5714 8.05652 21.2285 7.97083 21.5804 7.51689C21.9323 7.06296 21.8457 6.41267 21.387 6.06441C20.9283 5.71616 20.2712 5.80185 19.9194 6.25579ZM20.3582 10.2718L19.2935 11.6458L16.1328 9.24684C15.9563 9.11349 15.704 9.14694 15.5692 9.32161C15.4345 9.49624 15.4684 9.74594 15.6448 9.87934L19.1238 12.5199C19.3002 12.6533 19.5525 12.6198 19.6873 12.4452L20.9973 10.7548C21.132 10.5801 21.0982 10.3304 20.9217 10.197C20.7453 10.0637 20.493 10.0972 20.3582 10.2718ZM17.2148 15.2506L16.5869 14.3542L17.4231 13.2752L18.4606 13.6429C18.6701 13.7168 18.9005 13.6088 18.9753 13.4014C19.0501 13.194 18.9409 12.966 18.7314 12.892L14.3964 11.3558L14.3961 11.3568C14.2786 11.3155 14.1433 11.3286 14.0328 11.4041C13.8503 11.5288 13.8044 11.7765 13.9305 11.9571L16.5536 15.7023C16.6796 15.8829 16.9299 15.9283 17.1124 15.8035C17.295 15.6789 17.3408 15.4312 17.2148 15.2506ZM15.3057 12.5249L16.1059 13.6674L16.6282 12.9935L15.3057 12.5249ZM15.7899 16.1669C15.9247 15.9923 16.177 15.9588 16.3535 16.0921C16.5299 16.2255 16.5637 16.4752 16.429 16.6499L15.119 18.3403C14.9843 18.5149 14.732 18.5484 14.5555 18.4151L11.0765 15.7745C10.9001 15.6411 10.8662 15.3914 11.001 15.2167L12.3109 13.5263C12.4457 13.3517 12.698 13.3182 12.8745 13.4515C13.0509 13.5849 13.0848 13.8346 12.95 14.0093L11.8842 15.3846L12.9857 16.2207L13.6683 15.3398C13.803 15.1651 14.0553 15.1316 14.2318 15.265C14.4083 15.3983 14.4421 15.648 14.3074 15.8227L13.6237 16.7049L14.7252 17.541L15.7899 16.1669ZM8.82292 18.0274L9.47793 17.1822C9.7257 16.8624 10.083 16.672 10.459 16.623C10.8342 16.574 11.2283 16.6659 11.5504 16.9104L13.3214 18.2546C13.6445 18.4998 13.8368 18.8534 13.8864 19.2255C13.9359 19.5969 13.8431 19.9869 13.596 20.3057L12.941 21.1509C12.8063 21.3255 12.554 21.359 12.3775 21.2257L8.89848 18.5851C8.72198 18.4517 8.68818 18.202 8.82292 18.0274ZM10.117 17.6651C10.2294 17.52 10.3918 17.4336 10.5628 17.4113C10.7346 17.3888 10.915 17.4309 11.0625 17.5429L12.8334 18.8871C12.98 18.9984 13.0674 19.1591 13.0899 19.3284C13.1126 19.4983 13.07 19.6769 12.9569 19.8228L12.5471 20.3516L9.70616 18.1953L10.117 17.6651Z" fill="#2D2D2D"/>
</g>
<defs>
<clipPath id="clip0_80_1918">
<rect width="24" height="24" fill="white"/>
</clipPath>
</defs>
</svg>
