<svg width="12" height="14" viewBox="0 0 12 14" fill="none" xmlns="http://www.w3.org/2000/svg">
<path d="M4.0625 10.7812C4.0625 11.0098 3.85938 11.1875 3.65625 11.1875C3.42773 11.1875 3.25 11.0098 3.25 10.7812V5.5C3.25 5.29688 3.42773 5.09375 3.65625 5.09375C3.85938 5.09375 4.0625 5.29688 4.0625 5.5V10.7812ZM6.09375 10.7812C6.09375 11.0098 5.89062 11.1875 5.6875 11.1875C5.45898 11.1875 5.28125 11.0098 5.28125 10.7812V5.5C5.28125 5.29688 5.45898 5.09375 5.6875 5.09375C5.89062 5.09375 6.09375 5.29688 6.09375 5.5V10.7812ZM8.125 10.7812C8.125 11.0098 7.92188 11.1875 7.71875 11.1875C7.49023 11.1875 7.3125 11.0098 7.3125 10.7812V5.5C7.3125 5.29688 7.49023 5.09375 7.71875 5.09375C7.92188 5.09375 8.125 5.29688 8.125 5.5V10.7812ZM8.04883 1.25977L8.98828 2.65625H10.7656C11.0957 2.65625 11.375 2.93555 11.375 3.26562C11.375 3.62109 11.0957 3.875 10.7656 3.875H10.5625V11.5938C10.5625 12.7363 9.64844 13.625 8.53125 13.625H2.84375C1.70117 13.625 0.8125 12.7363 0.8125 11.5938V3.875H0.609375C0.253906 3.875 0 3.62109 0 3.26562C0 2.93555 0.253906 2.65625 0.609375 2.65625H2.36133L3.30078 1.25977C3.55469 0.878906 4.01172 0.625 4.49414 0.625H6.85547C7.33789 0.625 7.79492 0.878906 8.04883 1.25977ZM3.83398 2.65625H7.51562L7.0332 1.94531C7.00781 1.89453 6.93164 1.84375 6.85547 1.84375H4.49414C4.41797 1.84375 4.3418 1.89453 4.31641 1.94531L3.83398 2.65625ZM2.03125 11.5938C2.03125 12.0508 2.38672 12.4062 2.84375 12.4062H8.53125C8.96289 12.4062 9.34375 12.0508 9.34375 11.5938V3.875H2.03125V11.5938Z" fill="#2D2D2D"/>
</svg>
