<svg width="30" height="30" viewBox="0 0 30 30" fill="none" xmlns="http://www.w3.org/2000/svg">
<path d="M28.7029 4.26963C27.8624 2.69381 26.6314 1.46271 25.1777 0.744104C23.5305 -0.0733701 21.6804 -0.220515 19.8275 0.319641C18.1296 0.814698 16.4757 1.88843 14.9999 3.44606C13.524 1.88829 11.87 0.81449 10.1718 0.319503C8.31891 -0.220862 6.4687 -0.0735778 4.82151 0.74445C3.36774 1.46328 2.1368 2.69462 1.29645 4.27067C0.416374 5.9156 -0.0313412 7.91598 0.00170567 10.0553C0.148424 19.5661 12.131 28.2145 14.5315 29.8517C14.674 29.9489 14.8355 30 15 30C15.1644 30 15.326 29.9489 15.4684 29.8517C17.8692 28.2143 29.8528 19.5644 29.9982 10.0537C30.0309 7.91446 29.5831 5.91428 28.7029 4.26963ZM28.1236 10.0138C28.0767 13.0889 26.3429 16.6741 23.1101 20.3816C20.1163 23.8148 16.7109 26.4026 14.9999 27.6067C13.289 26.4028 9.88413 23.8154 6.89057 20.382C3.6576 16.6748 1.92382 13.0899 1.87635 10.0149C1.82456 6.65721 3.197 3.95574 5.5476 2.78834C6.31798 2.4079 7.14502 2.21385 7.97989 2.21764C10.1358 2.21764 12.4164 3.45161 14.3315 5.75397C14.4187 5.85886 14.5227 5.94216 14.6375 5.99903C14.7522 6.05589 14.8754 6.08518 14.9999 6.08518C15.1243 6.08518 15.2475 6.05589 15.3622 5.99903C15.477 5.94216 15.581 5.85886 15.6683 5.75397C18.3288 2.55543 21.6946 1.41907 24.4515 2.78813C26.8023 3.95511 28.1749 6.65617 28.1236 10.0136V10.0138Z" fill="#242424"/>
</svg>
