<svg width="29" height="23" viewBox="0 0 29 23" fill="none" xmlns="http://www.w3.org/2000/svg">
<path d="M9.08203 11.7715C9.08203 12.3574 8.59375 12.7969 8.00781 12.7969C7.56836 12.7969 7.22656 12.5527 7.22656 12.0645C7.22656 11.4785 7.66602 10.9902 8.30078 10.9902C8.74023 10.9902 9.08203 11.2832 9.08203 11.7715ZM3.90625 9.37891H3.66211C3.61328 9.37891 3.51562 9.42773 3.51562 9.52539L3.32031 10.8438L3.71094 10.7949C4.24805 10.7949 4.6875 10.7461 4.78516 10.1113C4.88281 9.47656 4.44336 9.37891 3.90625 9.37891ZM17.7734 9.37891H17.5781C17.4805 9.37891 17.4316 9.42773 17.3828 9.52539L17.1875 10.8438L17.5781 10.7949C18.2129 10.7949 18.6523 10.6484 18.6523 9.91602C18.6523 9.42773 18.2129 9.37891 17.7734 9.37891ZM28.125 3.03125V20.2188C28.125 21.5371 27.0508 22.5625 25.7812 22.5625H2.34375C1.02539 22.5625 0 21.5371 0 20.2188V3.03125C0 1.76172 1.02539 0.6875 2.34375 0.6875H25.7812C27.0508 0.6875 28.125 1.76172 28.125 3.03125ZM6.25 9.67188C6.25 8.64648 5.46875 8.30469 4.54102 8.30469H2.58789C2.49023 8.30469 2.34375 8.40234 2.34375 8.54883L1.5625 13.5293C1.51367 13.627 1.61133 13.7246 1.70898 13.7246H2.63672C2.73438 13.7246 2.88086 13.5781 2.88086 13.4316L3.125 12.1133C3.17383 11.7715 3.75977 11.918 4.00391 11.918C5.37109 11.918 6.25 11.0879 6.25 9.67188ZM10.3516 10.1113H9.42383C9.22852 10.1113 9.22852 10.3555 9.22852 10.502C8.93555 10.0625 8.54492 10.0137 8.05664 10.0137C6.88477 10.0137 5.95703 11.0391 5.95703 12.2109C5.95703 13.1875 6.54297 13.7734 7.51953 13.7734C7.95898 13.7734 8.49609 13.5293 8.78906 13.1875C8.78906 13.2852 8.74023 13.4316 8.74023 13.5293C8.74023 13.627 8.78906 13.7246 8.88672 13.7246H9.76562C9.86328 13.7246 10.0098 13.5781 10.0098 13.4316L10.498 10.3066C10.5469 10.209 10.4492 10.1113 10.3516 10.1113ZM12.3535 14.8965L15.4297 10.3555C15.4785 10.3066 15.4785 10.3066 15.4785 10.2578C15.4785 10.209 15.3809 10.1113 15.332 10.1113H14.3555C14.3066 10.1113 14.209 10.1602 14.1602 10.209L12.8418 12.1133L12.3047 10.3066C12.3047 10.209 12.1582 10.1113 12.0605 10.1113H11.1328C11.0352 10.1113 10.9863 10.209 10.9863 10.2578C10.9863 10.3066 11.9141 13.041 12.0117 13.2852C11.8652 13.4805 11.0352 14.7012 11.0352 14.8477C11.0352 14.9453 11.084 14.9941 11.1816 14.9941H12.1094C12.207 14.9941 12.3047 14.9453 12.3535 14.8965ZM20.1172 9.67188C20.1172 8.64648 19.3359 8.30469 18.4082 8.30469H16.4551C16.3574 8.30469 16.2109 8.40234 16.2109 8.54883L15.4297 13.5293C15.4297 13.627 15.4785 13.7246 15.5762 13.7246H16.5527C16.6504 13.7246 16.748 13.627 16.748 13.5293L16.9922 12.1133C17.041 11.7715 17.627 11.918 17.8711 11.918C19.2383 11.918 20.1172 11.0879 20.1172 9.67188ZM24.2188 10.1113H23.291C23.0957 10.1113 23.0957 10.3555 23.0957 10.502C22.8027 10.0625 22.4121 10.0137 21.9238 10.0137C20.752 10.0137 19.8242 11.0391 19.8242 12.2109C19.8242 13.1875 20.4102 13.7734 21.3867 13.7734C21.8262 13.7734 22.3633 13.5293 22.6562 13.1875C22.6562 13.2852 22.6074 13.4316 22.6074 13.5293C22.6074 13.627 22.6562 13.7246 22.7539 13.7246H23.6328C23.7305 13.7246 23.877 13.5781 23.877 13.4316L24.3652 10.3066C24.4141 10.209 24.3164 10.1113 24.2188 10.1113ZM26.5625 8.45117C26.5625 8.35352 26.4648 8.30469 26.3672 8.30469H25.4883C25.3906 8.30469 25.3418 8.35352 25.3418 8.45117L24.5117 13.5293C24.5117 13.627 24.6094 13.7246 24.707 13.7246H25.4883C25.6348 13.7246 25.7324 13.5781 25.7324 13.4316L26.5625 8.5V8.45117ZM22.168 10.9902C21.5332 10.9902 21.0938 11.4785 21.0938 12.0645C21.0938 12.5527 21.4355 12.7969 21.875 12.7969C22.4609 12.7969 22.9492 12.3574 22.9492 11.7715C22.9492 11.2832 22.6074 10.9902 22.168 10.9902Z" fill="#2D2D2D"/>
</svg>
