<svg width="29" height="23" viewBox="0 0 29 23" fill="none" xmlns="http://www.w3.org/2000/svg">
<path d="M22.9492 10.4531C22.9492 10.4531 23.291 12.2598 23.3887 12.6504H21.7773C21.9238 12.2109 22.5586 10.502 22.5586 10.502C22.5098 10.5508 22.7051 10.0625 22.8027 9.76953L22.9492 10.4531ZM28.125 3.03125V20.2188C28.125 21.5371 27.0508 22.5625 25.7812 22.5625H2.34375C1.02539 22.5625 0 21.5371 0 20.2188V3.03125C0 1.76172 1.02539 0.6875 2.34375 0.6875H25.7812C27.0508 0.6875 28.125 1.76172 28.125 3.03125ZM7.42188 15.3359L10.498 7.71875H8.44727L6.49414 12.8945L6.29883 11.8691L5.61523 8.40234C5.51758 7.91406 5.17578 7.76758 4.73633 7.71875H1.5625V7.91406C2.29492 8.10938 2.97852 8.35352 3.61328 8.74414L5.37109 15.3359H7.42188ZM12.0117 15.3359L13.2812 7.71875H11.2793L10.0586 15.3359H12.0117ZM18.8477 12.8457C18.8965 11.9668 18.3594 11.332 17.2363 10.7949C16.5527 10.4531 16.1133 10.209 16.1133 9.86719C16.1133 9.52539 16.4551 9.18359 17.2363 9.18359C17.8711 9.18359 18.3594 9.33008 18.7012 9.47656L18.8965 9.57422L19.1406 7.91406C18.75 7.76758 18.1641 7.62109 17.3828 7.62109C15.4297 7.62109 14.0625 8.64648 14.0625 10.1113C14.0625 11.1855 15.0391 11.8203 15.7715 12.1621C16.5527 12.5527 16.7969 12.7969 16.7969 13.0898C16.7969 13.627 16.2109 13.8711 15.625 13.8711C14.8438 13.8711 14.4531 13.7246 13.7695 13.4316L13.5254 13.334L13.2812 15.043C13.7207 15.2383 14.5508 15.4336 15.4297 15.4336C17.5293 15.4336 18.8477 14.4082 18.8477 12.8457ZM25.7812 15.3359L24.1699 7.71875H22.6562C22.168 7.71875 21.8262 7.86523 21.6309 8.35352L18.7012 15.3359H20.8008C20.8008 15.3359 21.0938 14.4082 21.1914 14.2129H23.7305C23.7793 14.457 23.9258 15.3359 23.9258 15.3359H25.7812Z" fill="white"/>
</svg>
