<svg width="24" height="20" viewBox="0 0 24 20" fill="none" xmlns="http://www.w3.org/2000/svg">
<path d="M5.29154 18.1224C4.32212 18.1224 3.53345 17.3338 3.53345 16.3644C3.53345 15.3949 4.32212 14.6063 5.29154 14.6063H12.0197C13.7646 14.6063 15.1841 13.1868 15.1841 11.442C15.1841 9.69715 13.7646 8.27768 12.0197 8.27768H7.27478V9.68393H12.0197C12.9892 9.68393 13.7778 10.4726 13.7778 11.442C13.7778 12.4114 12.9892 13.2001 12.0197 13.2001H5.29154C3.54671 13.2001 2.1272 14.6196 2.1272 16.3644C2.1272 18.1091 3.54671 19.5287 5.29154 19.5287H16.7251V18.1224H5.29154Z" fill="#2D2D2D"/>
<path d="M6.51427 1.58903C5.02402 0.0987815 2.60789 0.0987815 1.11769 1.58903C-0.372562 3.07928 -0.372562 5.49541 1.11769 6.98561L3.816 9.68392L6.51427 6.98561C8.00452 5.49536 8.00452 3.07923 6.51427 1.58903ZM3.79341 5.44197C3.13861 5.44197 2.6078 4.91116 2.6078 4.25636C2.6078 3.60156 3.13861 3.0707 3.79341 3.0707C4.4482 3.0707 4.97906 3.60152 4.97906 4.25636C4.97906 4.91116 4.44825 5.44197 3.79341 5.44197Z" fill="#2D2D2D"/>
<path d="M22.8824 11.4338C21.3922 9.94351 18.9761 9.94351 17.4859 11.4338C15.9956 12.924 15.9956 15.3401 17.4859 16.8303L20.1842 19.5286L22.8825 16.8303C24.3727 15.3401 24.3727 12.924 22.8824 11.4338ZM20.1616 15.2867C19.5068 15.2867 18.976 14.7559 18.976 14.1011C18.976 13.4463 19.5068 12.9155 20.1616 12.9155C20.8164 12.9155 21.3472 13.4463 21.3472 14.1011C21.3472 14.7559 20.8164 15.2867 20.1616 15.2867Z" fill="#2D2D2D"/>
</svg>
