<svg width="13" height="12" viewBox="0 0 13 12" fill="none" xmlns="http://www.w3.org/2000/svg">
<path d="M11.9766 6.86023L7.60156 11.2352C7.4375 11.3993 7.21875 11.4813 7 11.4813C6.75391 11.4813 6.53516 11.3993 6.37109 11.2352C6.01562 10.9071 6.01562 10.3329 6.37109 10.0048L9.24219 7.10632H0.875C0.382812 7.10632 0 6.72351 0 6.23132C0 5.76648 0.382812 5.35632 0.875 5.35632H9.24219L6.37109 2.48523C6.01562 2.1571 6.01562 1.58289 6.37109 1.25476C6.69922 0.899292 7.27344 0.899292 7.60156 1.25476L11.9766 5.62976C12.332 5.95789 12.332 6.5321 11.9766 6.86023Z" fill="white"/>
</svg>
