<svg width="24" height="24" viewBox="0 0 24 24" fill="none" xmlns="http://www.w3.org/2000/svg">
<g clip-path="url(#clip0_19_502)">
<path fill-rule="evenodd" clip-rule="evenodd" d="M7.55064 12.7327H1.9586C1.33839 12.7327 0.832581 12.2321 0.832581 11.6183V1.83055C0.832581 1.21675 1.33844 0.716156 1.9586 0.716156H17.8624C18.1934 0.716156 18.4783 0.841728 18.6996 1.0853L20.3412 2.89146L15.7074 3.25063C15.1496 3.29385 14.6659 3.55367 14.3254 3.993L7.55064 12.7327ZM4.81975 3.62166C4.24337 3.62166 3.77619 4.08402 3.77619 4.65446C3.77619 5.22489 4.24337 5.68725 4.81975 5.68725C5.39613 5.68725 5.86331 5.22489 5.86331 4.65446C5.86331 4.08402 5.39613 3.62166 4.81975 3.62166ZM8.43972 3.48712L4.04431 9.54215C3.91481 9.72026 3.95566 9.96852 4.13563 10.0967C4.3156 10.2249 4.56644 10.1845 4.69599 10.0064L9.0914 3.95137C9.2209 3.77326 9.18005 3.52496 9.00008 3.39679C8.82011 3.26858 8.56922 3.309 8.43972 3.48712ZM8.31218 7.76156C7.7358 7.76156 7.26862 8.22392 7.26862 8.79435C7.26862 9.36478 7.7358 9.82714 8.31218 9.82714C8.88857 9.82714 9.35574 9.36478 9.35574 8.79435C9.35579 8.22397 8.88857 7.76156 8.31218 7.76156ZM24.5983 11.7927C24.7997 11.5328 24.8724 11.2326 24.8119 10.9106L23.8344 5.70774C23.7089 5.04005 23.496 4.45954 22.9515 4.04614C22.407 3.63273 21.7854 3.57949 21.1012 3.63253L15.7703 4.04574C15.4403 4.07131 15.1662 4.21857 14.9648 4.47844L5.28441 16.9666C4.90694 17.4536 5.00032 18.1555 5.49239 18.5291L13.3391 24.4867C13.8312 24.8603 14.5405 24.7678 14.9179 24.2809L24.5983 11.7927ZM19.9194 6.25579C19.5676 6.70972 19.6541 7.36002 20.1128 7.70827C20.5715 8.05652 21.2285 7.97083 21.5804 7.51689C21.9323 7.06296 21.8457 6.41267 21.3871 6.06441C20.9283 5.71616 20.2713 5.80185 19.9194 6.25579ZM20.3583 10.2718L19.2935 11.6458L16.1328 9.24684C15.9564 9.11349 15.7041 9.14694 15.5693 9.32161C15.4346 9.49624 15.4684 9.74594 15.6449 9.87934L19.1238 12.5199C19.3003 12.6533 19.5526 12.6198 19.6874 12.4452L20.9973 10.7548C21.1321 10.5801 21.0983 10.3304 20.9218 10.197C20.7453 10.0637 20.493 10.0972 20.3583 10.2718ZM17.2148 15.2506L16.587 14.3542L17.4231 13.2752L18.4607 13.6429C18.6702 13.7168 18.9006 13.6088 18.9754 13.4014C19.0502 13.194 18.941 12.966 18.7314 12.892L14.3965 11.3558L14.3961 11.3568C14.2786 11.3155 14.1434 11.3286 14.0329 11.4041C13.8503 11.5288 13.8045 11.7765 13.9306 11.9571L16.5537 15.7023C16.6797 15.8829 16.9299 15.9283 17.1125 15.8035C17.2951 15.6789 17.3409 15.4312 17.2148 15.2506ZM15.3058 12.5249L16.106 13.6674L16.6282 12.9935L15.3058 12.5249ZM15.79 16.1669C15.9247 15.9923 16.177 15.9588 16.3535 16.0921C16.53 16.2255 16.5638 16.4752 16.4291 16.6499L15.1191 18.3403C14.9844 18.5149 14.7321 18.5484 14.5556 18.4151L11.0766 15.7745C10.9001 15.6411 10.8663 15.3914 11.001 15.2167L12.311 13.5263C12.4457 13.3517 12.698 13.3182 12.8745 13.4515C13.051 13.5849 13.0848 13.8346 12.9501 14.0093L11.8843 15.3846L12.9857 16.2207L13.6684 15.3398C13.8031 15.1651 14.0554 15.1316 14.2319 15.265C14.4083 15.3983 14.4422 15.648 14.3074 15.8227L13.6238 16.7049L14.7253 17.541L15.79 16.1669ZM8.82298 18.0274L9.47799 17.1822C9.72576 16.8624 10.083 16.672 10.459 16.623C10.8343 16.574 11.2283 16.6659 11.5505 16.9104L13.3215 18.2546C13.6445 18.4998 13.8369 18.8534 13.8865 19.2255C13.936 19.5969 13.8431 19.9869 13.5961 20.3057L12.9411 21.1509C12.8063 21.3255 12.554 21.359 12.3775 21.2257L8.89854 18.5851C8.72204 18.4517 8.68824 18.202 8.82298 18.0274ZM10.117 17.6651C10.2295 17.52 10.3919 17.4336 10.5629 17.4113C10.7346 17.3888 10.915 17.4309 11.0625 17.5429L12.8335 18.8871C12.9801 18.9984 13.0674 19.1591 13.09 19.3284C13.1126 19.4983 13.0701 19.6769 12.957 19.8228L12.5472 20.3516L9.70622 18.1953L10.117 17.6651Z" fill="white"/>
</g>
<defs>
<clipPath id="clip0_19_502">
<rect width="24" height="24" fill="white"/>
</clipPath>
</defs>
</svg>
