<svg width="40" height="40" viewBox="0 0 40 40" fill="none" xmlns="http://www.w3.org/2000/svg">
<path d="M19.75 16.0078C17.25 16.0078 15.2578 18.0391 15.2578 20.5C15.2578 23 17.25 24.9922 19.75 24.9922C22.2109 24.9922 24.2422 23 24.2422 20.5C24.2422 18.0391 22.2109 16.0078 19.75 16.0078ZM19.75 23.4297C18.1484 23.4297 16.8203 22.1406 16.8203 20.5C16.8203 18.8984 18.1094 17.6094 19.75 17.6094C21.3516 17.6094 22.6406 18.8984 22.6406 20.5C22.6406 22.1406 21.3516 23.4297 19.75 23.4297ZM25.4531 15.8516C25.4531 16.4375 24.9844 16.9062 24.3984 16.9062C23.8125 16.9062 23.3438 16.4375 23.3438 15.8516C23.3438 15.2656 23.8125 14.7969 24.3984 14.7969C24.9844 14.7969 25.4531 15.2656 25.4531 15.8516ZM28.4219 16.9062C28.3438 15.5 28.0312 14.25 27.0156 13.2344C26 12.2188 24.75 11.9062 23.3438 11.8281C21.8984 11.75 17.5625 11.75 16.1172 11.8281C14.7109 11.9062 13.5 12.2188 12.4453 13.2344C11.4297 14.25 11.1172 15.5 11.0391 16.9062C10.9609 18.3516 10.9609 22.6875 11.0391 24.1328C11.1172 25.5391 11.4297 26.75 12.4453 27.8047C13.5 28.8203 14.7109 29.1328 16.1172 29.2109C17.5625 29.2891 21.8984 29.2891 23.3438 29.2109C24.75 29.1328 26 28.8203 27.0156 27.8047C28.0312 26.75 28.3438 25.5391 28.4219 24.1328C28.5 22.6875 28.5 18.3516 28.4219 16.9062ZM26.5469 25.6562C26.2734 26.4375 25.6484 27.0234 24.9062 27.3359C23.7344 27.8047 21 27.6875 19.75 27.6875C18.4609 27.6875 15.7266 27.8047 14.5938 27.3359C13.8125 27.0234 13.2266 26.4375 12.9141 25.6562C12.4453 24.5234 12.5625 21.7891 12.5625 20.5C12.5625 19.25 12.4453 16.5156 12.9141 15.3438C13.2266 14.6016 13.8125 14.0156 14.5938 13.7031C15.7266 13.2344 18.4609 13.3516 19.75 13.3516C21 13.3516 23.7344 13.2344 24.9062 13.7031C25.6484 13.9766 26.2344 14.6016 26.5469 15.3438C27.0156 16.5156 26.8984 19.25 26.8984 20.5C26.8984 21.7891 27.0156 24.5234 26.5469 25.6562Z" fill="#747474"/>
<circle cx="20" cy="20" r="19.5" stroke="#747474"/>
</svg>
