<svg width="24" height="24" viewBox="0 0 24 24" fill="none" xmlns="http://www.w3.org/2000/svg">
<g clip-path="url(#clip0_80_1926)">
<path d="M21.001 3.74869H6.00631C5.17818 3.74869 4.50684 4.42003 4.50684 5.24816C4.50684 6.07629 5.17818 6.74763 6.00631 6.74763H21.001C21.8292 6.74763 22.5005 6.07629 22.5005 5.24816C22.5005 4.42003 21.8292 3.74869 21.001 3.74869Z" fill="#2D2D2D"/>
<path d="M3.00734 5.24816C3.00566 4.85113 2.84657 4.47097 2.565 4.19104C1.98016 3.60966 1.03559 3.60966 0.450744 4.19104C0.169124 4.47097 0.0100394 4.85113 0.00839939 5.24816C-0.0027998 5.3453 -0.0027998 5.44342 0.00839939 5.54056C0.0253622 5.63826 0.0530087 5.73381 0.0908704 5.82546C0.131122 5.91426 0.178777 5.99954 0.23332 6.08037C0.287161 6.16443 0.349998 6.24236 0.420754 6.31279C0.48898 6.38073 0.564376 6.44109 0.645675 6.49273C0.724632 6.55022 0.810242 6.59806 0.900586 6.63518C0.999973 6.68672 1.10592 6.72458 1.21547 6.74764C1.31261 6.75851 1.41073 6.75851 1.50787 6.74764C1.90383 6.74796 2.28385 6.59164 2.565 6.31279C2.63576 6.24236 2.69859 6.16443 2.75243 6.08037C2.80698 5.99954 2.85463 5.91426 2.89488 5.82546C2.94273 5.73493 2.98045 5.63939 3.00734 5.54056C3.01854 5.44342 3.01854 5.3453 3.00734 5.24816Z" fill="#2D2D2D"/>
<path d="M3.00725 11.9958C3.0184 11.8986 3.0184 11.8005 3.00725 11.7034C2.98133 11.6066 2.94357 11.5135 2.89479 11.426C2.85617 11.334 2.80843 11.2461 2.75234 11.1636C2.70037 11.0804 2.6373 11.0048 2.5649 10.9387C1.98006 10.3573 1.03549 10.3573 0.450645 10.9387C0.169025 11.2186 0.00994083 11.5988 0.00830078 11.9958C0.011206 12.1934 0.049302 12.3888 0.120761 12.5731C0.158342 12.6618 0.203513 12.7471 0.255714 12.828C0.312741 12.9095 0.378061 12.9849 0.450645 13.0529C0.516903 13.1252 0.592533 13.1882 0.675566 13.2403C0.754523 13.2979 0.840087 13.3457 0.930477 13.3828C1.0219 13.4213 1.11754 13.449 1.21538 13.4653C1.3113 13.4868 1.40946 13.4968 1.50777 13.4953C1.60491 13.5065 1.70303 13.5065 1.80017 13.4953C1.89557 13.4789 1.98873 13.4512 2.07757 13.4128C2.1704 13.376 2.25849 13.3281 2.33998 13.2703C2.42301 13.2182 2.49864 13.1552 2.5649 13.0829C2.63716 13.0166 2.70023 12.941 2.75234 12.858C2.80997 12.7791 2.85781 12.6935 2.89479 12.6031C2.946 12.5035 2.98382 12.3976 3.00725 12.2882C3.01877 12.191 3.01877 12.0929 3.00725 11.9958Z" fill="#2D2D2D"/>
<path d="M3.00734 18.7434C3.01844 18.6463 3.01844 18.5481 3.00734 18.451C2.98143 18.3519 2.94366 18.2562 2.89488 18.1661C2.85463 18.0773 2.80697 17.992 2.75243 17.9112C2.70032 17.8282 2.63725 17.7525 2.56499 17.6863C1.98015 17.1049 1.03558 17.1049 0.450737 17.6863C0.378481 17.7525 0.31541 17.8282 0.263303 17.9112C0.20876 17.992 0.161105 18.0773 0.120853 18.1661C0.0819606 18.2574 0.0542672 18.3531 0.0383822 18.451C0.017249 18.547 0.00722124 18.6451 0.0083927 18.7434C0.0100796 19.1404 0.169164 19.5206 0.450737 19.8005C0.516995 19.8728 0.592625 19.9359 0.675658 19.988C0.754615 20.0455 0.840178 20.0934 0.930569 20.1304C1.02199 20.1689 1.11763 20.1966 1.21547 20.2129C1.31139 20.2344 1.40956 20.2445 1.50787 20.2429C1.605 20.2541 1.70312 20.2541 1.80026 20.2429C1.89567 20.2265 1.98882 20.1988 2.07767 20.1604C2.17049 20.1236 2.25859 20.0757 2.34007 20.018C2.42311 19.9658 2.49874 19.9028 2.56499 19.8305C2.63725 19.7643 2.70032 19.6886 2.75243 19.6056C2.81011 19.5267 2.85795 19.4411 2.89488 19.3507C2.94605 19.2511 2.98386 19.1453 3.00734 19.0358C3.01887 18.9387 3.01887 18.8405 3.00734 18.7434Z" fill="#2D2D2D"/>
<path d="M22.5005 10.4963H6.00631C5.17818 10.4963 4.50684 11.1676 4.50684 11.9958C4.50684 12.8239 5.17818 13.4953 6.00631 13.4953H22.5005C23.3286 13.4953 24 12.8239 24 11.9958C24 11.1676 23.3286 10.4963 22.5005 10.4963Z" fill="#2D2D2D"/>
<path d="M15.7529 17.244H6.00631C5.17818 17.244 4.50684 17.9153 4.50684 18.7434C4.50684 19.5716 5.17818 20.2429 6.00631 20.2429H15.7529C16.581 20.2429 17.2524 19.5716 17.2524 18.7434C17.2524 17.9153 16.581 17.244 15.7529 17.244Z" fill="#2D2D2D"/>
</g>
<defs>
<clipPath id="clip0_80_1926">
<rect width="24" height="24" fill="white"/>
</clipPath>
</defs>
</svg>
