<svg width="24" height="24" viewBox="0 0 24 24" fill="none" xmlns="http://www.w3.org/2000/svg">
<path d="M2.48278 0C1.11145 0 0 1.46509 0 3.27271C0 5.08032 1.11145 6.54547 2.48278 6.54547C3.85408 6.54547 4.96553 5.08037 4.96553 3.27271C4.96553 1.46504 3.85408 0 2.48278 0ZM2.48278 8.72724C1.11145 8.72724 0 10.1924 0 12C0 13.8077 1.11145 15.2728 2.48278 15.2728C3.85408 15.2728 4.96553 13.8077 4.96553 12C4.96553 10.1924 3.85408 8.72724 2.48278 8.72724ZM2.48278 17.4546C1.11145 17.4546 0 18.9196 0 20.7272C0 22.5349 1.11145 24 2.48278 24C3.85408 24 4.96553 22.5349 4.96553 20.7272C4.96553 18.9196 3.85408 17.4546 2.48278 17.4546ZM9.10345 5.45453H22.3448C23.2593 5.45453 24 4.47815 24 3.27271C24 2.06727 23.2593 1.09089 22.3448 1.09089H9.10345C8.18898 1.09089 7.44827 2.06727 7.44827 3.27271C7.44827 4.47815 8.18898 5.45453 9.10345 5.45453ZM22.3448 9.81818H9.10345C8.18898 9.81818 7.44827 10.7946 7.44827 12C7.44827 13.2054 8.18898 14.1818 9.10345 14.1818H22.3448C23.2593 14.1818 24 13.2054 24 12C24 10.7946 23.2593 9.81818 22.3448 9.81818ZM22.3448 18.5455H9.10345C8.18898 18.5455 7.44827 19.5218 7.44827 20.7272C7.44827 21.9327 8.18898 22.9091 9.10345 22.9091H22.3448C23.2593 22.9091 24 21.9327 24 20.7272C24 19.5218 23.2593 18.5455 22.3448 18.5455Z" fill="#2D2D2D" fill-opacity="0.3"/>
</svg>
