<svg width="40" height="40" viewBox="0 0 40 40" fill="none" xmlns="http://www.w3.org/2000/svg">
<path d="M26.9297 16.4375C26.9297 16.6328 26.9297 16.7891 26.9297 16.9844C26.9297 22.4141 22.8281 28.625 15.2891 28.625C12.9453 28.625 10.7969 27.9609 9 26.7891C9.3125 26.8281 9.625 26.8672 9.97656 26.8672C11.8906 26.8672 13.6484 26.2031 15.0547 25.1094C13.2578 25.0703 11.7344 23.8984 11.2266 22.2578C11.5 22.2969 11.7344 22.3359 12.0078 22.3359C12.3594 22.3359 12.75 22.2578 13.0625 22.1797C11.1875 21.7891 9.78125 20.1484 9.78125 18.1562V18.1172C10.3281 18.4297 10.9922 18.5859 11.6562 18.625C10.5234 17.8828 9.82031 16.6328 9.82031 15.2266C9.82031 14.4453 10.0156 13.7422 10.3672 13.1562C12.3984 15.6172 15.4453 17.2578 18.8438 17.4531C18.7656 17.1406 18.7266 16.8281 18.7266 16.5156C18.7266 14.25 20.5625 12.4141 22.8281 12.4141C24 12.4141 25.0547 12.8828 25.8359 13.7031C26.7344 13.5078 27.6328 13.1562 28.4141 12.6875C28.1016 13.6641 27.4766 14.4453 26.6172 14.9531C27.4375 14.875 28.2578 14.6406 28.9609 14.3281C28.4141 15.1484 27.7109 15.8516 26.9297 16.4375Z" fill="#747474"/>
<circle cx="20" cy="20" r="19.5" stroke="#747474"/>
</svg>
