<svg width="30" height="30" viewBox="0 0 30 30" fill="none" xmlns="http://www.w3.org/2000/svg">
<path d="M5.83448 30H24.1655C27.3828 30 30 27.6646 30 24.7938V9.23077C30 8.72308 29.5345 8.30769 28.9655 8.30769H22.7586V6.92308C22.7586 3.10615 19.2776 0 15 0C10.7224 0 7.24138 3.10615 7.24138 6.92308V8.30769H1.03448C0.465517 8.30769 0 8.72308 0 9.23077V24.7938C0 27.6646 2.61724 30 5.83448 30ZM9.31034 6.92308C9.31034 4.12154 11.8603 1.84615 15 1.84615C18.1397 1.84615 20.6897 4.12154 20.6897 6.92308V8.30769H9.31034V6.92308ZM2.06897 10.1538H7.24138V12.4615C7.24138 12.9692 7.7069 13.3846 8.27586 13.3846C8.84483 13.3846 9.31034 12.9692 9.31034 12.4615V10.1538H20.6897V12.4615C20.6897 12.9692 21.1552 13.3846 21.7241 13.3846C22.2931 13.3846 22.7586 12.9692 22.7586 12.4615V10.1538H27.931V24.7938C27.931 26.6446 26.2397 28.1538 24.1655 28.1538H5.83448C3.76034 28.1538 2.06897 26.6446 2.06897 24.7938V10.1538Z" fill="black"/>
</svg>
