<svg width="20" height="21" viewBox="0 0 20 21" fill="none" xmlns="http://www.w3.org/2000/svg">
<path d="M0 10.5C0 16.0078 4.45312 20.5 10 20.5C15.5078 20.5 20 16.0078 20 10.5C20 4.95312 15.5078 0.5 10 0.5C4.45312 0.5 0 4.95312 0 10.5ZM6.83594 12.3359L8.67188 10.5L6.83594 8.66406C6.44531 8.27344 6.44531 7.6875 6.83594 7.33594C7.1875 6.94531 7.77344 6.94531 8.125 7.33594L9.96094 9.17188L11.8359 7.33594C12.1875 6.94531 12.7734 6.94531 13.125 7.33594C13.5156 7.6875 13.5156 8.27344 13.125 8.66406L11.2891 10.5L13.125 12.3359C13.5156 12.6875 13.5156 13.2734 13.125 13.6641C12.7734 14.0156 12.1875 14.0156 11.8359 13.6641L9.96094 11.7891L8.125 13.6641C7.77344 14.0156 7.1875 14.0156 6.83594 13.6641C6.44531 13.2734 6.44531 12.6875 6.83594 12.3359Z" fill="#2D2D2D"/>
</svg>
