<svg width="17" height="14" viewBox="0 0 17 14" fill="none" xmlns="http://www.w3.org/2000/svg">
<path d="M9.34375 0.625C10.0039 0.625 10.5625 1.18359 10.5625 1.84375V3.0625H11.832C12.2637 3.0625 12.6699 3.24023 13 3.54492L14.9551 5.5C15.2598 5.80469 15.4375 6.23633 15.4375 6.66797V9.5625C15.8691 9.5625 16.25 9.94336 16.25 10.375C16.25 10.832 15.8691 11.1875 15.4375 11.1875H14.625C14.625 12.5332 13.5332 13.625 12.1875 13.625C10.8164 13.625 9.75 12.5332 9.75 11.1875H6.5C6.5 12.5332 5.4082 13.625 4.0625 13.625C2.69141 13.625 1.625 12.5332 1.625 11.1875H1.21875C0.533203 11.1875 0 10.6543 0 9.96875V1.84375C0 1.18359 0.533203 0.625 1.21875 0.625H9.34375ZM10.5625 4.6875V7.125H13.8125V6.66797L11.832 4.6875H10.5625ZM4.0625 9.96875C3.37695 9.96875 2.84375 10.5273 2.84375 11.1875C2.84375 11.873 3.37695 12.4062 4.0625 12.4062C4.72266 12.4062 5.28125 11.873 5.28125 11.1875C5.28125 10.5273 4.72266 9.96875 4.0625 9.96875ZM12.1875 12.4062C12.8477 12.4062 13.4062 11.873 13.4062 11.1875C13.4062 10.5273 12.8477 9.96875 12.1875 9.96875C11.502 9.96875 10.9688 10.5273 10.9688 11.1875C10.9688 11.873 11.502 12.4062 12.1875 12.4062Z" fill="#2D2D2D"/>
</svg>
