<svg width="24" height="24" viewBox="0 0 24 24" fill="none" xmlns="http://www.w3.org/2000/svg">
<g clip-path="url(#clip0_9_69)">
<path d="M5.2916 20.1224C4.32218 20.1224 3.53351 19.3338 3.53351 18.3644C3.53351 17.3949 4.32218 16.6063 5.2916 16.6063H12.0198C13.7646 16.6063 15.1841 15.1868 15.1841 13.442C15.1841 11.6971 13.7646 10.2777 12.0198 10.2777H7.27484V11.6839H12.0198C12.9892 11.6839 13.7779 12.4726 13.7779 13.442C13.7779 14.4114 12.9892 15.2001 12.0198 15.2001H5.2916C3.54677 15.2001 2.12726 16.6196 2.12726 18.3644C2.12726 20.1091 3.54677 21.5287 5.2916 21.5287H16.7251V20.1224H5.2916Z" fill="white"/>
<path d="M6.51427 3.58903C5.02402 2.09878 2.60789 2.09878 1.11769 3.58903C-0.372562 5.07928 -0.372562 7.49541 1.11769 8.98561L3.816 11.6839L6.51427 8.98561C8.00452 7.49536 8.00452 5.07923 6.51427 3.58903ZM3.79341 7.44197C3.13861 7.44197 2.6078 6.91116 2.6078 6.25636C2.6078 5.60156 3.13861 5.0707 3.79341 5.0707C4.4482 5.0707 4.97906 5.60152 4.97906 6.25636C4.97906 6.91116 4.44825 7.44197 3.79341 7.44197Z" fill="white"/>
<path d="M22.8823 13.4338C21.3921 11.9435 18.9759 11.9435 17.4857 13.4338C15.9955 14.924 15.9955 17.3401 17.4857 18.8303L20.184 21.5286L22.8824 18.8303C24.3726 17.3401 24.3726 14.924 22.8823 13.4338ZM20.1614 17.2867C19.5067 17.2867 18.9758 16.7559 18.9758 16.1011C18.9758 15.4463 19.5067 14.9155 20.1614 14.9155C20.8162 14.9155 21.3471 15.4463 21.3471 16.1011C21.3471 16.7559 20.8163 17.2867 20.1614 17.2867Z" fill="white"/>
</g>
<defs>
<clipPath id="clip0_9_69">
<rect width="24" height="24" fill="white"/>
</clipPath>
</defs>
</svg>
