<svg width="35" height="35" viewBox="0 0 35 35" fill="none" xmlns="http://www.w3.org/2000/svg">
<circle cx="17.5" cy="17.5" r="17" fill="white" stroke="#EAEAEA"/>
<g clip-path="url(#clip0_85_2108)">
<path d="M25.3082 12.5105C24.86 11.6701 24.2034 11.0135 23.4281 10.6303C22.5496 10.1943 21.5629 10.1158 20.5747 10.4039C19.6691 10.6679 18.7871 11.2406 18 12.0713C17.2128 11.2405 16.3307 10.6678 15.425 10.4038C14.4368 10.1156 13.45 10.1942 12.5715 10.6304C11.7961 11.0138 11.1396 11.6705 10.6914 12.5111C10.2221 13.3884 9.98328 14.4553 10.0009 15.5962C10.0792 20.6687 16.4698 25.2811 17.7502 26.1543C17.8261 26.2061 17.9123 26.2334 18 26.2334C18.0877 26.2334 18.1738 26.2061 18.2498 26.1543C19.5303 25.281 25.9215 20.6677 25.9991 15.5954C26.0165 14.4544 25.7776 13.3877 25.3082 12.5105ZM24.9993 15.5741C24.9743 17.2142 24.0496 19.1263 22.3254 21.1036C20.7287 22.9346 18.9125 24.3148 18 24.957C17.0875 24.3149 15.2715 22.9349 13.675 21.1038C11.9507 19.1266 11.026 17.2147 11.0007 15.5747C10.9731 13.7839 11.7051 12.3431 12.9587 11.7205C13.3696 11.5176 13.8107 11.4141 14.2559 11.4161C15.4058 11.4161 16.6221 12.0743 17.6434 13.3022C17.69 13.3581 17.7455 13.4026 17.8067 13.4329C17.8679 13.4632 17.9336 13.4788 17.9999 13.4788C18.0663 13.4788 18.132 13.4632 18.1932 13.4329C18.2544 13.4026 18.3099 13.3581 18.3564 13.3022C19.7753 11.5963 21.5705 10.9902 23.0408 11.7204C24.2946 12.3428 25.0266 13.7834 24.9993 15.574V15.5741Z" fill="#C8C8C8"/>
</g>
<defs>
<clipPath id="clip0_85_2108">
<rect width="16" height="16" fill="white" transform="translate(10 10)"/>
</clipPath>
</defs>
</svg>
